<svg width="197" height="41" viewBox="0 0 197 41" fill="none" xmlns="http://www.w3.org/2000/svg">
<g clip-path="url(#clip0_653_1869)">
<path d="M29.0504 0.128906L29.153 32.3114L29.0504 32.1682C21.4474 21.5279 13.8427 10.8877 6.23649 0.247456H0.0429688V39.9681L2.65823 40.0026C2.65823 39.1036 2.65823 38.2095 2.68268 37.3105C2.77392 26.8975 2.86843 16.4795 2.9662 6.05662C10.5692 17.3621 18.1722 28.6659 25.7752 39.9681H31.91V0.247456L29.0504 0.128906Z" fill="white"/>
<path d="M90.3655 21.9732L86.6797 27.2489L89.7202 31.7786L91.6756 34.6635L95.2392 39.9737H102.572L90.3655 21.9732ZM98.7832 0.238281L88.6204 14.3265L90.4339 16.6975C92.0634 14.4714 93.6814 12.2435 95.288 10.0141L98.6805 5.34599L99.9662 3.57755L100.03 3.48864L102.381 0.2531L98.7832 0.238281Z" fill="white"/>
<path d="M180.381 0.347656H177.522V24.424C177.597 26.7079 177.006 28.9637 175.821 30.9099C174.354 33.1625 171.881 34.5357 168.488 34.5357C162.353 34.5357 159.259 30.2628 159.259 24.424V0.347656H152.254V25.0465C152.254 29.3589 153.593 33.0291 156.008 35.7262L156.057 35.7805C158.056 37.9837 162.637 41.4563 168.395 40.6956C174.432 39.9003 178.441 34.9013 179.79 30.5049C180.241 29.0146 180.439 27.4581 180.376 25.901C180.38 17.3783 180.381 8.86051 180.381 0.347656Z" fill="white"/>
<path d="M189.001 0.347656L190.013 30.6827H195.195L195.909 0.347656H189.001ZM192.751 32.5499C190.37 32.5499 188.586 34.1751 188.586 36.4622C188.586 38.8679 190.312 40.3745 192.751 40.3745C195.19 40.3745 197.043 38.8086 197.043 36.4622C197.043 34.1158 195.312 32.5499 192.751 32.5499Z" fill="white"/>
<path d="M88.7391 19.3195L88.4018 19.8135L80.1699 31.7727L78.2145 34.6575L74.5629 39.9677H66.4141L70.0363 34.6575L71.9917 31.7727L80.1699 19.8135L80.3409 19.5616L78.4834 16.9238C75.2473 12.3133 72.008 7.71111 68.7654 3.11713L66.7416 0.242188H75.0127L77.0804 3.11713L87.0135 16.9238L88.7391 19.3195Z" fill="#D7F25C"/>
<path d="M35.8398 0.246094V39.8481H62.9408V36.9781V36.9584H42.8888V36.9781H42.7666V30.4428H42.8057V26.2885H42.7666V19.8125H60.7948V19.7532V16.9178H42.8057V9.64151H42.7666V3.11609H63.0581V3.10622V0.246094H35.8398Z" fill="white"/>
<path d="M106.418 0.238281V0.327193V3.13792H118.629L118.541 27.3378H118.482V40.196H125.473V36.7233H125.478L125.595 3.13792H137.806V0.327193V0.238281H106.418Z" fill="white"/>
</g>
<defs>
<clipPath id="clip0_653_1869">
<rect width="197" height="41" fill="white"/>
</clipPath>
</defs>
</svg>
